C:\Users\Nicos\Documents\OpenSimProjects\SprintingProject\Study1\PredictiveResults\IC_pred_Sprinting_optimum_28-October-2023__10-02-52_p02_maxVel_01___HTD_Plus_6_GRF.mot
version=1
nRows=79
nColumns=10
inDegrees=yes
endheader
time	ground_force_vx	ground_force_vy	ground_force_vz	ground_force_px	ground_force_py	ground_force_pz	ground_torque_x	ground_torque_y	ground_torque_z
0.056000	-65.185517	20.000000	-12.018138	0.385607	0.000000	0.371164	-7.423275	-19.560190	7.712148
0.056655	-76.007081	23.507927	-14.023848	0.391106	0.000000	0.372081	-8.746849	-22.795924	9.194094
0.058725	-113.782128	36.666180	-20.036835	0.408262	0.000000	0.374941	-13.747662	-34.481189	14.969423
0.060225	-145.046613	48.477632	-24.210602	0.420265	0.000000	0.376909	-18.271675	-44.494258	20.373433
0.060880	-160.299165	54.302464	-26.389347	0.425322	0.000000	0.377712	-20.510687	-49.322493	23.096018
0.062950	-210.358383	74.362539	-32.210042	0.440824	0.000000	0.380166	-28.270090	-65.770719	32.780795
0.064450	-248.282766	91.090392	-34.485397	0.451537	0.000000	0.381876	-34.785201	-79.238535	41.130646
0.065105	-265.563769	99.225228	-34.715401	0.456038	0.000000	0.382603	-37.963912	-85.769444	45.250432
0.067175	-323.582641	128.480530	-36.475609	0.469320	0.000000	0.384701	-49.426618	-107.348062	60.298487
0.068675	-367.885342	153.169046	-38.649588	0.477919	0.000000	0.386039	-59.129230	-123.508979	73.202455
0.069331	-387.917324	165.099800	-39.724244	0.481345	0.000000	0.386602	-63.827908	-130.794708	79.469919
0.071400	-462.777491	212.531036	-43.381532	0.490177	0.000000	0.388836	-82.639668	-158.528120	104.177769
0.072901	-549.561525	271.306586	-47.977903	0.493230	0.000000	0.390596	-105.971341	-190.660956	133.816635
0.073556	-597.308877	304.506599	-54.554361	0.493763	0.000000	0.391152	-119.108400	-206.234563	150.354196
0.075626	-764.656791	443.496098	-74.621021	0.494136	0.000000	0.392896	-174.247634	-262.433809	219.147472
0.077126	-893.794314	581.090427	-96.099770	0.492171	0.000000	0.394115	-229.016525	-302.811223	285.995652
0.077781	-945.073394	650.451088	-109.346876	0.490776	0.000000	0.394548	-256.633905	-316.319752	319.225459
0.079851	-1049.420339	892.733481	-136.477572	0.481796	0.000000	0.395227	-352.832146	-340.839405	430.115409
0.081351	-1080.593895	1140.907210	-139.065452	0.469895	0.000000	0.395216	-450.905074	-344.345831	536.106452
0.082006	-1063.941942	1274.105999	-139.750658	0.465200	0.000000	0.395401	-503.782645	-333.073916	592.714057
0.084076	-881.918108	1781.551723	-106.701525	0.455547	0.000000	0.396255	-705.949146	-259.019272	811.580405
0.085576	-636.777696	2179.130744	-39.656098	0.451754	0.000000	0.396895	-864.886039	-178.921875	984.430330
0.086231	-525.748538	2346.868160	-3.594174	0.450378	0.000000	0.397132	-932.016089	-147.072595	1056.978006
0.088301	-225.619884	2817.165791	62.231449	0.446594	0.000000	0.397462	-1119.715101	-52.246420	1258.130626
0.089801	-136.339002	3120.471100	47.786064	0.444685	0.000000	0.397417	-1240.129648	-11.294070	1387.625792
0.090456	-62.535695	3246.815894	31.796784	0.444395	0.000000	0.397382	-1290.226265	22.909038	1442.869363
0.092526	70.323721	3610.155129	-109.632461	0.444309	0.000000	0.396880	-1432.798379	114.634362	1604.022686
0.094026	130.360847	3823.014423	-104.193968	0.445051	0.000000	0.397048	-1517.921019	137.205167	1701.437354
0.094681	160.749376	3898.712431	-120.221255	0.445598	0.000000	0.397039	-1547.941887	155.040768	1737.259452
0.096751	245.053242	4061.740302	-124.592081	0.447616	0.000000	0.397256	-1613.549363	190.823669	1818.100835
0.098251	316.810853	4111.532158	-119.058786	0.449249	0.000000	0.397411	-1633.969327	216.768906	1847.102327
0.098906	339.590301	4120.717125	-115.453712	0.450131	0.000000	0.397492	-1637.950693	224.097832	1854.860468
0.100976	418.698748	4091.309081	-105.630627	0.453522	0.000000	0.397745	-1627.295931	250.766182	1855.500666
0.102477	467.699481	4019.169932	-96.421612	0.456519	0.000000	0.397947	-1599.415277	265.400059	1834.828204
0.103132	490.349609	3974.803107	-90.086218	0.457966	0.000000	0.398052	-1582.179893	271.295959	1820.325463
0.105202	554.806394	3796.392453	-66.789395	0.463159	0.000000	0.398325	-1512.196394	284.964114	1758.334840
0.106702	590.962286	3629.230546	-54.316476	0.467525	0.000000	0.398611	-1446.650868	292.540855	1696.755715
0.107357	600.518162	3548.351678	-45.067063	0.469609	0.000000	0.398776	-1414.996866	291.641156	1666.338854
0.109427	631.295894	3273.375484	-29.457814	0.476978	0.000000	0.399259	-1306.925458	293.143203	1561.328608
0.110927	636.888566	3060.592634	-22.155275	0.483038	0.000000	0.399635	-1223.121244	288.783285	1478.383516
0.111582	638.355640	2965.762117	-17.392204	0.485877	0.000000	0.399802	-1185.718914	285.688009	1440.994696
0.113652	630.942674	2664.766484	-2.530710	0.495449	0.000000	0.400365	-1066.878467	271.942361	1320.254883
0.115152	620.588610	2451.745408	7.203077	0.502768	0.000000	0.400798	-982.653849	260.455916	1232.658950
0.115807	618.767631	2363.936533	12.019807	0.506058	0.000000	0.400994	-947.924502	255.240570	1196.288571
0.117877	602.052111	2118.254943	13.384664	0.515130	0.000000	0.401514	-850.509624	243.131747	1091.176493
0.119377	602.422014	1977.152954	16.854790	0.519408	0.000000	0.401785	-794.389948	239.910950	1026.948719
0.120032	604.322737	1915.231201	19.545057	0.521247	0.000000	0.401918	-769.765263	238.745318	998.308595
0.122102	609.495238	1714.261490	28.503375	0.527342	0.000000	0.402402	-689.821639	234.670427	904.002141
0.123602	611.588746	1564.442509	36.836318	0.532226	0.000000	0.402827	-630.198973	230.274012	832.636436
0.124257	612.603331	1499.274440	40.845583	0.534503	0.000000	0.403032	-604.255627	228.169201	801.366527
0.126327	598.284633	1299.145564	49.022923	0.541318	0.000000	0.403563	-524.287078	217.542833	703.250340
0.127827	582.291346	1169.015529	54.276077	0.545719	0.000000	0.403900	-472.165302	207.915230	637.953979
0.128482	577.013878	1114.363979	57.279359	0.547699	0.000000	0.404062	-450.271714	203.947867	610.336208
0.130552	545.607206	950.542885	59.665100	0.553213	0.000000	0.404462	-384.458216	189.230775	525.852327
0.132052	517.329001	846.526798	59.145708	0.555969	0.000000	0.404645	-342.542482	177.448599	470.642313
0.132708	504.745533	804.487951	59.291265	0.556826	0.000000	0.404644	-325.531505	171.973703	447.959746
0.134777	460.486558	683.169223	60.337352	0.557875	0.000000	0.404176	-276.120698	152.738886	381.123176
0.136278	424.730701	597.238207	60.794864	0.557893	0.000000	0.403742	-241.130381	137.657615	333.194824
0.136933	409.542739	562.265119	61.278773	0.557555	0.000000	0.403592	-226.925733	131.171760	313.493453
0.139003	357.530576	456.839009	60.649960	0.555025	0.000000	0.403245	-184.218021	110.518504	253.556845
0.140503	313.342881	377.699911	58.774736	0.552546	0.000000	0.402970	-152.201713	93.793104	208.696689
0.141158	295.405418	343.111221	56.589402	0.551405	0.000000	0.402793	-138.202902	87.783995	189.193385
0.143228	217.369715	231.985998	53.088390	0.546638	0.000000	0.402315	-93.331335	58.430894	126.812250
0.144728	144.425720	153.404417	48.305986	0.542098	0.000000	0.401740	-61.628625	31.834940	83.160254
0.145383	113.413671	121.310718	45.362328	0.539985	0.000000	0.401381	-48.691792	21.027090	65.505974
0.147453	32.622308	37.819379	21.212217	0.533134	0.000000	0.398622	-15.075631	1.695019	20.162783
0.148953	4.004653	5.297260	3.670839	0.528654	0.000000	0.394921	-2.091998	-0.359082	2.800415
0.149608	1.564968	2.269802	1.693078	0.527038	0.000000	0.392837	-0.891662	-0.277539	1.196272
0.151678	0.009814	0.024847	0.021086	0.524693	0.000000	0.384939	-0.009565	-0.007286	0.013037
0.153178	0.000037	0.000292	0.000249	0.526590	0.000000	0.378912	-0.000111	-0.000117	0.000154
0.153833	0.000000	0.000035	0.000029	0.528532	0.000000	0.376523	-0.000013	-0.000015	0.000019
0.155903	-0.000000	0.000000	0.000000	0.539737	0.000000	0.371797	-0.000000	-0.000000	0.000000
0.157403	-0.000000	0.000000	0.000000	0.552045	0.000000	0.372240	-0.000000	-0.000000	0.000000
0.158058	-0.000000	0.000000	0.000000	0.558185	0.000000	0.373309	-0.000000	-0.000000	0.000000
0.160128	-0.000000	0.000000	0.000000	NaN	0.000000	NaN	0.000000	0.000000	0.000000
0.161628	-0.000000	0.000000	0.000000	NaN	0.000000	NaN	0.000000	0.000000	0.000000
0.162284	-0.000000	0.000000	0.000000	NaN	0.000000	NaN	0.000000	0.000000	0.000000
0.164353	-0.000000	0.000000	0.000000	NaN	0.000000	NaN	0.000000	0.000000	0.000000
0.165854	-0.000000	0.000000	0.000000	NaN	0.000000	NaN	0.000000	0.000000	0.000000
